<svg xmlns="http://www.w3.org/2000/svg"  viewBox="0 0 64 64" width="256px" height="256px" fill-rule="evenodd" clip-rule="evenodd"><linearGradient id="85YcB~G5oa7mfp~tE5lROa" x1="32" x2="32" y1="17.867" y2="55.465" gradientUnits="userSpaceOnUse"><stop offset="0" stop-color="#1a6dff"/><stop offset="1" stop-color="#c822ff"/></linearGradient><path fill="url(#85YcB~G5oa7mfp~tE5lROa)" fill-rule="evenodd" d="M57.853,51.196c-0.695-1.373-1.523-2.746-2.502-4.101	c-1.11-1.524-2.295-2.916-3.517-4.157c-1.185-1.185-2.446-2.238-3.744-3.16c-2.727-1.9-6.113-3.499-10.158-4.797	c-1.486-0.47-2.934-0.715-4.364-0.752l-1.994,0.075l0.038-0.244l2.897-3.461c0.056-0.057,0.112-0.132,0.169-0.188	c1.222-1.411,2.352-2.521,3.348-3.292c0.123,0.067,0.136,0.073,0.075,0.038c2.21,1.189,4.292,1.517,6.208,0.94	c1.542-0.451,3.179-1.561,4.91-3.329c1.674-1.674,2.351-2.972,2.05-3.894c-0.508-1.524-1.73-2.257-3.668-2.238	c-0.884,0.018-2.05,0.451-3.461,1.26c-1.11,0.64-1.919,1.204-2.389,1.675c-4.27-1.919-7.318-3.048-9.161-3.367	c-6.96-1.242-12.979,0.979-18.04,6.64c-2.728,3.104-4.034,4.948-3.706,5.437c0.439,0.653,1.618,0.132,1.618,0.132	c0.376-0.094,0.828-0.245,1.373-0.414c2.972-1.053,4.421-1.806,4.326-2.257l0.094-1.618c0.094-1.317,0.978-2.521,2.615-3.612	c2.728-1.843,5.38-2.182,7.976-1.016c0.828,0.376,1.975,1.072,3.443,2.069c1.712,1.185,2.972,1.994,3.743,2.427c0,0,0,0,0,0l0,0	c0.076,0.094,0.057,0.169-0.075,0.226c-1.524,1.261-2.972,2.671-4.383,4.195c-0.658,0.696-1.317,1.43-1.938,2.201l-1.561,2.163	c-1.655,0.358-3.781,1.091-6.358,2.201c-0.456,0.216-0.9,0.431-1.334,0.646c-0.156,0.077-0.306,0.154-0.459,0.231	c-0.27,0.136-0.539,0.271-0.801,0.406c-0.182,0.094-0.36,0.188-0.538,0.281c-0.223,0.117-0.443,0.234-0.66,0.351	c-0.184,0.099-0.366,0.198-0.545,0.297c-0.079,0.044-0.162,0.088-0.24,0.131l-0.002,0.004c-1.859,1.037-3.462,2.05-4.789,3.033	c-0.244,0.188-0.508,0.376-0.752,0.583c-2.916,2.333-5.067,4.906-6.339,7.731c-0.193,0.428-0.566,1.448,0.229,1.864	c0.972,0.51,3.092,0.414,5.752-0.516c0.045-0.016,0.09-0.031,0.136-0.048c0.326-0.117,0.659-0.245,1-0.387	c0.053-0.022,0.107-0.046,0.161-0.069c0.352-0.15,0.709-0.31,1.074-0.488c2.747-1.354,5.549-3.31,8.427-5.888	c0.715-0.677,1.448-1.411,2.201-2.201c0.884-0.959,1.806-1.994,2.765-3.104l3.631-0.188c2.991,0.075,6.132,0.433,9.425,1.053	c3.179,0.602,5.587,1.354,7.261,2.238c0.715,0.395,1.298,0.809,1.73,1.241c0.884,0.884,1.204,1.768,0.96,2.652l-0.358,0.96	c-0.112,0.339-0.132,0.602-0.075,0.809c0.301,0.866,1.411,2.051,3.311,3.555c1.711,1.354,3.235,2.352,4.608,3.01	c0.809,0.357,1.279,0.395,1.411,0.113C59.189,54.469,58.831,53.114,57.853,51.196z" clip-rule="evenodd"/><linearGradient id="85YcB~G5oa7mfp~tE5lROb" x1="29.068" x2="29.068" y1="50.718" y2="8.078" gradientUnits="userSpaceOnUse"><stop offset="0" stop-color="#e6abff"/><stop offset="1" stop-color="#6dc7ff"/></linearGradient><path fill="url(#85YcB~G5oa7mfp~tE5lROb)" fill-rule="evenodd" d="M32.65,13.574c-0.208-1.041,0.057-2.121,0.777-3.239	c0.852-1.345,1.855-2.083,3.011-2.235c1.497-0.171,2.879,0.625,4.167,2.348c1.193,1.61,1.724,3.125,1.591,4.507	c-0.019,0.833-1.25,1.345-3.693,1.515c-1.913,0.151-3.296-0.038-4.186-0.587C33.389,15.335,32.84,14.559,32.65,13.574z M44.092,22.346c0.357,0.294,1.203,0.412,2.575,0.353c1.522-0.059,2.556-0.372,3.138-0.98c0.282-0.294,0.282-0.588-0.037-0.863	c-0.357-0.333-1.015-0.412-1.954-0.275c-0.809,0.137-1.673,0.431-2.612,0.883C44.28,21.914,43.904,22.209,44.092,22.346z M23.654,40.152c0,0-0.016,0.003-0.037,0.006c-0.004,0.001-0.012,0.002-0.017,0.003c-0.024,0.004-0.058,0.01-0.098,0.016	c-0.012,0.002-0.025,0.004-0.039,0.007c-0.042,0.007-0.093,0.016-0.148,0.026c-0.019,0.003-0.036,0.006-0.056,0.01	c-0.156,0.028-0.355,0.065-0.59,0.112c-0.018,0.004-0.038,0.008-0.057,0.012c-0.102,0.02-0.21,0.043-0.324,0.067	c-0.028,0.006-0.058,0.012-0.087,0.018c-0.116,0.025-0.237,0.051-0.364,0.079c-0.026,0.006-0.052,0.011-0.079,0.017	c-0.315,0.071-0.659,0.152-1.028,0.244c-0.017,0.004-0.035,0.009-0.052,0.013c-0.163,0.041-0.331,0.085-0.503,0.131	c-0.037,0.01-0.074,0.02-0.111,0.03c-0.165,0.044-0.333,0.091-0.503,0.139c-0.032,0.009-0.064,0.018-0.096,0.027	c-0.412,0.118-0.84,0.248-1.277,0.39c-0.022,0.007-0.044,0.015-0.066,0.022c-0.191,0.063-0.383,0.128-0.577,0.195	c-0.046,0.016-0.092,0.032-0.137,0.048c-0.178,0.063-0.357,0.128-0.536,0.195c-0.045,0.017-0.089,0.033-0.134,0.05	c-0.218,0.083-0.437,0.168-0.655,0.257v0c-2.269,0.925-4.506,2.195-5.838,3.888c-2.783,3.537-2.53,4.712-0.949,4.55	c0.081-0.008,0.165-0.02,0.252-0.036c0.05-0.009,0.099-0.017,0.151-0.028c0.096-0.02,0.198-0.045,0.301-0.072	c0.049-0.013,0.096-0.024,0.146-0.038c0.133-0.038,0.272-0.083,0.415-0.132c0.024-0.008,0.046-0.015,0.071-0.023	c0.17-0.06,0.346-0.127,0.528-0.201c0.044-0.018,0.091-0.039,0.136-0.058c0.137-0.057,0.276-0.117,0.418-0.181	c0.066-0.03,0.133-0.062,0.2-0.093c0.126-0.059,0.252-0.119,0.381-0.182c0.074-0.036,0.148-0.074,0.223-0.112	c0.125-0.064,0.252-0.129,0.379-0.197c0.078-0.041,0.155-0.082,0.233-0.125c0.131-0.071,0.263-0.145,0.396-0.22	c0.074-0.042,0.148-0.083,0.222-0.126c0.152-0.088,0.305-0.179,0.458-0.271c0.055-0.033,0.11-0.065,0.166-0.099	c0.209-0.128,0.418-0.259,0.627-0.394c0.036-0.023,0.072-0.048,0.108-0.071c0.172-0.112,0.344-0.225,0.514-0.341	c0.071-0.048,0.141-0.097,0.211-0.146c0.135-0.093,0.269-0.186,0.402-0.281c0.079-0.057,0.158-0.114,0.236-0.171	c0.124-0.091,0.248-0.182,0.37-0.274c0.078-0.059,0.156-0.118,0.233-0.177c0.122-0.094,0.242-0.188,0.361-0.282	c0.073-0.058,0.146-0.116,0.218-0.174c0.126-0.102,0.249-0.205,0.372-0.309c0.06-0.051,0.121-0.101,0.18-0.151	c0.178-0.153,0.352-0.307,0.52-0.461C23.147,41.215,23.654,40.152,23.654,40.152z" clip-rule="evenodd"/></svg>